<svg xmlns="http://www.w3.org/2000/svg" xmlns:xlink="http://www.w3.org/1999/xlink" width="500" zoomAndPan="magnify" viewBox="0 0 375 374.999991" height="500" preserveAspectRatio="xMidYMid meet" version="1.0"><defs><clipPath id="fdae375dbf"><path d="M 19 156 L 83 156 L 83 219.894531 L 19 219.894531 Z M 19 156 " clip-rule="nonzero"/></clipPath></defs><rect x="-37.5" width="450" fill="#ffffff" y="-37.499999" height="449.999989" fill-opacity="1"/><rect x="-37.5" width="450" fill="#ffffff" y="-37.499999" height="449.999989" fill-opacity="1"/><path fill="#f47521" d="M 348.730469 167.386719 L 355.371094 167.386719 L 355.371094 205.371094 L 348.730469 205.371094 Z M 348.730469 167.386719 " fill-opacity="1" fill-rule="nonzero"/><path fill="#f47521" d="M 334.410156 167.386719 L 341.046875 167.386719 L 341.046875 205.371094 L 334.410156 205.371094 Z M 334.410156 167.386719 " fill-opacity="1" fill-rule="nonzero"/><path fill="#f47521" d="M 328.8125 191.644531 C 328.8125 200.792969 324.257812 205.699219 315.859375 205.699219 C 307.464844 205.699219 302.910156 200.792969 302.910156 191.644531 C 302.910156 182.492188 307.464844 177.585938 315.859375 177.585938 C 324.257812 177.585938 328.8125 182.492188 328.8125 191.644531 Z M 322.5 191.644531 C 322.5 184.257812 320.03125 182.878906 316.1875 182.878906 C 312.347656 182.878906 309.878906 184.257812 309.878906 191.644531 C 309.878906 199.03125 312.347656 200.410156 316.1875 200.410156 C 319.703125 200.410156 322.5 199.03125 322.5 191.644531 Z M 322.5 191.644531 " fill-opacity="1" fill-rule="nonzero"/><path fill="#f47521" d="M 300.109375 177.585938 L 300.109375 183.207031 C 296.597656 183.207031 292.425781 183.207031 292.425781 184.972656 L 292.425781 205.371094 L 285.785156 205.371094 L 285.785156 181.113281 C 286.117188 176.867188 300.109375 177.585938 300.109375 177.585938 Z M 300.109375 177.585938 " fill-opacity="1" fill-rule="nonzero"/><path fill="#f47521" d="M 260.214844 216.230469 C 265.152344 203.9375 264.769531 204.984375 265.152344 203.9375 L 255.328125 177.917969 L 262.355469 177.917969 L 268.664062 196.878906 L 274.589844 177.917969 L 281.617188 177.917969 L 271.132812 206.03125 L 267.292969 216.230469 Z M 260.214844 216.230469 " fill-opacity="1" fill-rule="nonzero"/><path fill="#f47521" d="M 251.488281 188.832031 L 251.488281 205.371094 L 244.847656 205.371094 L 244.847656 188.445312 C 244.847656 185.964844 244.132812 183.539062 238.207031 183.539062 C 236.671875 183.59375 235.132812 183.816406 233.652344 184.257812 L 233.652344 205.371094 L 227.011719 205.371094 L 227.011719 167.386719 L 233.652344 167.386719 L 233.652344 178.300781 C 235.410156 177.53125 237.328125 177.199219 239.25 177.253906 C 247.261719 177.585938 251.488281 181.773438 251.488281 188.832031 Z M 251.488281 188.832031 " fill-opacity="1" fill-rule="nonzero"/><path fill="#f47521" d="M 214.773438 200.078125 C 217.1875 199.96875 219.546875 199.527344 221.796875 198.644531 L 221.796875 204.265625 C 219.21875 205.316406 216.53125 205.757812 213.730469 205.644531 C 205.335938 205.644531 200.78125 200.738281 200.78125 191.589844 C 200.78125 182.4375 205.335938 177.199219 213.730469 177.199219 C 216.476562 177.308594 219.164062 177.75 221.796875 178.632812 L 221.796875 184.257812 C 219.546875 183.375 217.1875 182.933594 214.773438 182.878906 C 210.21875 182.878906 207.421875 184.257812 207.421875 191.3125 C 207.421875 198.644531 210.21875 200.078125 214.773438 200.078125 Z M 214.773438 200.078125 " fill-opacity="1" fill-rule="nonzero"/><path fill="#f47521" d="M 196.554688 188.113281 L 196.554688 205.316406 L 190.242188 205.316406 L 190.242188 188.113281 C 190.242188 185.632812 190.242188 183.207031 184.644531 183.207031 C 182.890625 183.207031 179.378906 183.539062 179.378906 184.585938 L 179.378906 205.316406 L 173.066406 205.316406 L 173.066406 182.492188 C 173.066406 177.917969 178.664062 177.199219 185.632812 177.199219 C 192.714844 177.585938 196.554688 180.398438 196.554688 188.113281 Z M 196.554688 188.113281 " fill-opacity="1" fill-rule="nonzero"/><path fill="#f47521" d="M 166.8125 177.917969 L 166.8125 193.019531 C 166.8125 201.125 164.011719 206.03125 154.574219 206.03125 C 145.132812 206.03125 142.664062 201.125 142.664062 193.019531 L 142.664062 177.917969 L 148.976562 177.917969 L 148.976562 193.738281 C 148.976562 198.3125 150.730469 199.691406 154.574219 199.691406 C 158.414062 199.691406 160.171875 198.3125 160.171875 193.738281 L 160.171875 177.917969 Z M 166.8125 177.917969 " fill-opacity="1" fill-rule="nonzero"/><path fill="#f47521" d="M 137.453125 177.585938 L 137.453125 183.207031 C 133.9375 183.207031 129.769531 183.207031 129.769531 184.972656 L 129.769531 205.371094 L 123.128906 205.371094 L 123.128906 181.113281 C 123.457031 176.867188 137.453125 177.585938 137.453125 177.585938 Z M 137.453125 177.585938 " fill-opacity="1" fill-rule="nonzero"/><path fill="#f47521" d="M 110.121094 200.078125 C 112.425781 200.023438 114.675781 199.527344 116.761719 198.644531 L 116.761719 204.265625 C 114.183594 205.316406 111.492188 205.757812 108.695312 205.644531 C 100.296875 205.644531 95.742188 200.738281 95.742188 191.589844 C 95.742188 182.4375 100.296875 177.199219 108.695312 177.199219 C 111.4375 177.308594 114.128906 177.75 116.761719 178.632812 L 116.761719 184.257812 C 114.621094 183.429688 112.371094 182.933594 110.121094 182.878906 C 105.566406 182.878906 102.769531 184.257812 102.769531 191.3125 C 102.4375 198.644531 105.621094 200.078125 110.121094 200.078125 Z M 110.121094 200.078125 " fill-opacity="1" fill-rule="nonzero"/><g clip-path="url(#fdae375dbf)"><path fill="#f47521" d="M 27.257812 191.644531 C 27.257812 176.261719 39.660156 163.859375 54.96875 163.859375 C 69.402344 163.914062 81.367188 175.050781 82.519531 189.492188 L 82.519531 187.730469 C 82.519531 170.253906 68.414062 156.085938 51.019531 156.085938 C 33.621094 156.085938 19.519531 170.308594 19.519531 187.785156 C 19.519531 205.261719 33.621094 219.371094 51.019531 219.371094 L 53.105469 219.371094 C 38.617188 218.378906 27.3125 206.253906 27.257812 191.644531 Z M 27.257812 191.644531 " fill-opacity="1" fill-rule="nonzero"/></g><path fill="#f47521" d="M 69.894531 193.019531 C 64.296875 193.019531 59.796875 188.5 59.742188 182.933594 C 59.742188 178.632812 62.378906 174.828125 66.382812 173.339844 C 63.257812 171.6875 59.796875 170.804688 56.230469 170.859375 C 44.046875 170.859375 34.171875 180.78125 34.171875 193.019531 C 34.171875 205.261719 44.046875 215.183594 56.230469 215.183594 C 68.414062 215.183594 78.292969 205.261719 78.292969 193.019531 C 78.347656 191.589844 78.238281 190.210938 77.964844 188.777344 C 76.261719 191.589844 73.132812 193.1875 69.894531 193.019531 Z M 69.894531 193.019531 " fill-opacity="1" fill-rule="nonzero"/></svg>