<svg xmlns="http://www.w3.org/2000/svg" viewBox="0 0 1440 320"><path fill="#001c2e" fill-opacity="1" d="M0,224L26.7,197.3C53.3,171,107,117,160,106.7C213.3,96,267,128,320,138.7C373.3,149,427,139,480,122.7C533.3,107,587,85,640,74.7C693.3,64,747,64,800,85.3C853.3,107,907,149,960,154.7C1013.3,160,1067,128,1120,149.3C1173.3,171,1227,245,1280,240C1333.3,235,1387,149,1413,106.7L1440,64L1440,0L1413.3,0C1386.7,0,1333,0,1280,0C1226.7,0,1173,0,1120,0C1066.7,0,1013,0,960,0C906.7,0,853,0,800,0C746.7,0,693,0,640,0C586.7,0,533,0,480,0C426.7,0,373,0,320,0C266.7,0,213,0,160,0C106.7,0,53,0,27,0L0,0Z"></path></svg>